<svg xmlns="http://www.w3.org/2000/svg" xmlns:xlink="http://www.w3.org/1999/xlink" viewBox="0 0 24 30" version="1.1" x="0px" y="0px">
  <g stroke="none" stroke-width="1" fill="none" fill-rule="evenodd"><g transform="translate(-45.000000, -285.000000)" fill="#000000"><g transform="translate(42.000000, 281.000000)"><g transform="translate(12.060993, 14.276847) rotate(30.000000) translate(-12.060993, -14.276847) translate(5.560993, 2.276847)"><path d="M3.64960068,6.36309133 C3.63530264,6.43855316 3.63530264,6.43855316 3.62104283,6.51387341 C3.28012947,8.31432875 3.08536628,9.07603511 2.7208157,9.77255815 C2.91575438,9.40010153 0.825247752,13.163955 0.479531398,14.0561304 C0.159371077,14.8823544 6.14619466e-13,15.6609613 6.14619466e-13,16.5 C6.14619466e-13,20.6421356 3.35786438,24 7.5,24 C7.77614237,24 8,23.7761424 8,23.5 C8,23.2238576 7.77614237,23 7.5,23 C3.91014913,23 1,20.0898509 1,16.5 C1,15.7908086 1.13458482,15.1332949 1.41197343,14.41745 C1.72856811,13.6004276 3.76570692,9.9326603 3.60680133,10.2362708 C4.03502136,9.41809875 4.24267337,8.60598504 4.60358449,6.69991611 C4.61784683,6.62458255 4.61784683,6.62458255 4.63210156,6.54934929 C5.2810885,3.12597749 5.86664866,2 7.5,2 C7.77614237,2 8,1.77614237 8,1.5 C8,1.22385763 7.77614237,1 7.5,1 C5.1504077,1 4.38860715,2.4648713 3.64960068,6.36309133 Z"/><path d="M7.5,23 C7.22385763,23 7,23.2238576 7,23.5 C7,23.7761424 7.22385763,24 7.5,24 C8.86955284,24 10.186389,23.6319146 11.3375754,22.9450893 C11.574718,22.8036044 11.6522638,22.4966661 11.5107789,22.2595235 C11.3692939,22.0223808 11.0623556,21.944835 10.825213,22.0863199 C9.82789478,22.6813438 8.68789312,23 7.5,23 Z"/><path d="M10.3678984,6.54934929 C10.3821532,6.62458255 10.3821532,6.62458255 10.3964155,6.69991611 C10.6717005,8.15377038 10.8187953,8.7988606 11.0752946,9.50523682 C11.1695459,9.76479663 11.4563665,9.89880561 11.7159263,9.80455426 C11.9754861,9.71030291 12.1094951,9.4234823 12.0152438,9.16392249 C11.7838051,8.52656113 11.6437809,7.91247887 11.3789572,6.51387341 C11.3646974,6.43855316 11.3646974,6.43855316 11.3503993,6.36309133 C10.6113929,2.4648713 9.8495923,1 7.5,1 C7.22385763,1 7,1.22385763 7,1.5 C7,1.77614237 7.22385763,2 7.5,2 C9.13335134,2 9.7189115,3.12597749 10.3678984,6.54934929 Z"/><path d="M8,0.5 C8,0.223857625 7.77614237,-1.66977543e-13 7.5,-1.66977543e-13 C7.22385763,-1.66977543e-13 7,0.223857625 7,0.5 L7,1.5 C7,1.77614237 7.22385763,2 7.5,2 C7.77614237,2 8,1.77614237 8,1.5 L8,0.5 Z"/></g><g transform="translate(17.759388, 19.821837) rotate(70.000000) translate(-17.759388, -19.821837) translate(10.759388, 9.821837)"><path d="M2.6066428,4.70292247 C2.59643033,4.76809145 2.59643033,4.76809145 2.58624472,4.83314091 C2.34283957,6.38741303 2.20349951,7.04630717 1.94386601,7.64609464 C2.0836599,7.3231524 0.589578029,10.5756315 0.342249896,11.3473569 C0.113625001,12.0607235 -1.63424829e-13,12.7319075 -1.63424829e-13,13.4545455 C-1.63424829e-13,17.0507511 2.43922837,20 5.5,20 C5.77614237,20 6,19.7761424 6,19.5 C6,19.2238576 5.77614237,19 5.5,19 C3.03792413,19 1,16.5359645 1,13.4545455 C1,12.8400756 1.0963435,12.2709736 1.29453927,11.6525534 C1.52029044,10.9481535 2.97452674,7.78241463 2.86157473,8.04334858 C3.16820595,7.33499025 3.31630531,6.63467615 3.57420336,4.98785913 C3.58439072,4.92279848 3.58439072,4.92279848 3.59457308,4.85782169 C4.04742302,1.96959433 4.46445842,1 5.5,1 C5.77614237,1 6,0.776142375 6,0.5 C6,0.223857625 5.77614237,-2.62900812e-13 5.5,-2.62900812e-13 C3.69058184,-2.62900812e-13 3.14521673,1.2679569 2.6066428,4.70292247 Z"/><path d="M7.40542692,4.85782169 C7.41560928,4.92279848 7.41560928,4.92279848 7.42579664,4.98785913 C7.68369469,6.63467615 7.83179405,7.33499025 8.13842527,8.04334858 C8.02547326,7.78241463 9.47970956,10.9481535 9.70546073,11.6525534 C9.9036565,12.2709736 10,12.8400756 10,13.4545455 C10,16.5359645 7.96207587,19 5.5,19 C5.22385763,19 5,19.2238576 5,19.5 C5,19.7761424 5.22385763,20 5.5,20 C8.56077163,20 11,17.0507511 11,13.4545455 C11,12.7319075 10.886375,12.0607235 10.6577501,11.3473569 C10.410422,10.5756315 8.9163401,7.3231524 9.05613399,7.64609464 C8.79650049,7.04630717 8.65716043,6.38741303 8.41375528,4.83314091 C8.40356967,4.76809145 8.40356967,4.76809145 8.3933572,4.70292247 C7.85478327,1.2679569 7.30941816,-1.19015908e-12 5.5,-1.19015908e-12 C5.22385763,-1.19015908e-12 5,0.223857625 5,0.5 C5,0.776142375 5.22385763,1 5.5,1 C6.53554158,1 6.95257698,1.96959433 7.40542692,4.85782169 Z"/><path d="M9.19620255,4.55713474 C9.20899477,4.59302852 9.20899477,4.59302852 9.22181173,4.62898452 C9.73799672,6.07684768 10.0357825,6.73647229 10.5763368,7.40784848 C12.2171594,9.44577361 13,11.5015052 13,13.4545455 C13,16.481894 9.66776947,19 5.5,19 C5.22385763,19 5,19.2238576 5,19.5 C5,19.7761424 5.22385763,20 5.5,20 C10.1687865,20 14,17.1048216 14,13.4545455 C14,11.2639836 13.1340531,8.9900156 11.3552474,6.78071352 C10.9094315,6.22700375 10.6419327,5.63446771 10.1637408,4.29317263 C10.1509607,4.25731994 10.1509607,4.25731994 10.1381634,4.22141202 C9.03556966,1.12778713 8.09331164,-1.19015908e-12 5.5,-1.19015908e-12 C5.22385763,-1.19015908e-12 5,0.223857625 5,0.5 C5,0.776142375 5.22385763,1 5.5,1 C7.53433998,1 8.22157307,1.8225482 9.19620255,4.55713474 Z"/><path d="M8.50180176,13.7334885 C8.50180176,13.3394441 8.42609414,12.924574 8.28410551,12.491033 C8.05733429,11.7986211 7.66859262,11.0755964 7.16371652,10.3418205 C6.87998383,9.92944959 6.57685126,9.53899579 6.27358394,9.18179159 C6.09073194,8.96641889 5.94715918,8.80861361 5.86223324,8.72028301 C5.67084514,8.5212222 5.35432376,8.51500224 5.15526295,8.70639034 C4.95620214,8.89777844 4.94998218,9.21429982 5.14137028,9.41336063 C5.21269435,9.48754407 5.34255908,9.63028242 5.51126958,9.82899852 C5.79393976,10.1619423 6.0767447,10.5262129 6.33988701,10.9086582 C6.79507389,11.5702169 7.14095176,12.2135187 7.33377481,12.802275 C7.44481769,13.1413278 7.50180176,13.4535947 7.50180176,13.7334885 C7.50180176,14.7380069 6.6137858,15.5668218 5.50180176,15.5668218 C5.22565939,15.5668218 5.00180176,15.7906794 5.00180176,16.0668218 C5.00180176,16.3429642 5.22565939,16.5668218 5.50180176,16.5668218 C7.15124147,16.5668218 8.50180176,15.3062989 8.50180176,13.7334885 Z"/><path d="M4.73001958,9.18179159 C4.42675226,9.53899579 4.1236197,9.92944959 3.83988701,10.3418205 C3.3350109,11.0755964 2.94626923,11.7986211 2.71949801,12.491033 C2.57750939,12.924574 2.50180176,13.3394441 2.50180176,13.7334885 C2.50180176,15.3062989 3.85236205,16.5668218 5.50180176,16.5668218 C5.77794414,16.5668218 6.00180176,16.3429642 6.00180176,16.0668218 C6.00180176,15.7906794 5.77794414,15.5668218 5.50180176,15.5668218 C4.38981772,15.5668218 3.50180176,14.7380069 3.50180176,13.7334885 C3.50180176,13.4535947 3.55878583,13.1413278 3.66982871,12.802275 C3.86265176,12.2135187 4.20852963,11.5702169 4.66371652,10.9086582 C4.92685883,10.5262129 5.20966376,10.1619423 5.49233394,9.82899852 C5.66104444,9.63028242 5.79090918,9.48754407 5.86223324,9.41336063 C6.05362134,9.21429982 6.04740138,8.89777844 5.84834057,8.70639034 C5.64927976,8.51500224 5.33275838,8.5212222 5.14137028,8.72028301 C5.05644435,8.80861361 4.91287158,8.96641889 4.73001958,9.18179159 Z"/></g></g></g></g></svg>
